<mxfile host="app.diagrams.net" modified="2024-01-09T05:10:30.912Z" agent="Mozilla/5.0 (Macintosh; Intel Mac OS X 10_15_7) AppleWebKit/605.1.15 (KHTML, like Gecko) Version/15.3 Safari/605.1.15" etag="02arqeDWnU6b3JpMYK88" version="22.1.17" type="github">
  <diagram name="페이지-1" id="EQChQw8cjZPv3QoRFis_">
    <mxGraphModel dx="837" dy="570" grid="1" gridSize="10" guides="1" tooltips="1" connect="1" arrows="1" fold="1" page="1" pageScale="1" pageWidth="827" pageHeight="1169" math="0" shadow="0">
      <root>
        <mxCell id="0" />
        <mxCell id="1" parent="0" />
        <mxCell id="2FQ-EGClD2yYOhLsUAKh-1" value="Actor" style="shape=umlActor;verticalLabelPosition=bottom;verticalAlign=top;html=1;outlineConnect=0;" vertex="1" parent="1">
          <mxGeometry x="40" y="140" width="30" height="60" as="geometry" />
        </mxCell>
        <mxCell id="2FQ-EGClD2yYOhLsUAKh-2" value="" style="swimlane;startSize=0;" vertex="1" parent="1">
          <mxGeometry x="90" y="20" width="710" height="550" as="geometry">
            <mxRectangle x="310" y="200" width="50" height="40" as="alternateBounds" />
          </mxGeometry>
        </mxCell>
        <mxCell id="2FQ-EGClD2yYOhLsUAKh-3" value="게시판 서비스" style="text;strokeColor=none;align=center;fillColor=none;html=1;verticalAlign=middle;whiteSpace=wrap;rounded=0;" vertex="1" parent="2FQ-EGClD2yYOhLsUAKh-2">
          <mxGeometry x="10" width="80" height="30" as="geometry" />
        </mxCell>
        <mxCell id="2FQ-EGClD2yYOhLsUAKh-20" style="edgeStyle=orthogonalEdgeStyle;rounded=0;orthogonalLoop=1;jettySize=auto;html=1;exitX=1;exitY=0.5;exitDx=0;exitDy=0;entryX=0;entryY=0.5;entryDx=0;entryDy=0;dashed=1;" edge="1" parent="2FQ-EGClD2yYOhLsUAKh-2" source="2FQ-EGClD2yYOhLsUAKh-5" target="2FQ-EGClD2yYOhLsUAKh-10">
          <mxGeometry relative="1" as="geometry" />
        </mxCell>
        <mxCell id="2FQ-EGClD2yYOhLsUAKh-21" value="&amp;lt;&amp;lt; include &amp;gt;&amp;gt;" style="edgeLabel;html=1;align=center;verticalAlign=middle;resizable=0;points=[];" vertex="1" connectable="0" parent="2FQ-EGClD2yYOhLsUAKh-20">
          <mxGeometry x="-0.075" y="-4" relative="1" as="geometry">
            <mxPoint as="offset" />
          </mxGeometry>
        </mxCell>
        <mxCell id="2FQ-EGClD2yYOhLsUAKh-5" value="회원 로그인" style="rounded=1;whiteSpace=wrap;html=1;" vertex="1" parent="2FQ-EGClD2yYOhLsUAKh-2">
          <mxGeometry x="130" y="10" width="110" height="50" as="geometry" />
        </mxCell>
        <mxCell id="2FQ-EGClD2yYOhLsUAKh-13" value="회원 가입" style="rounded=1;whiteSpace=wrap;html=1;" vertex="1" parent="2FQ-EGClD2yYOhLsUAKh-2">
          <mxGeometry x="70" y="80" width="110" height="50" as="geometry" />
        </mxCell>
        <mxCell id="2FQ-EGClD2yYOhLsUAKh-25" style="edgeStyle=orthogonalEdgeStyle;rounded=0;orthogonalLoop=1;jettySize=auto;html=1;exitX=1;exitY=0;exitDx=0;exitDy=0;entryX=0.5;entryY=1;entryDx=0;entryDy=0;dashed=1;" edge="1" parent="2FQ-EGClD2yYOhLsUAKh-2" source="2FQ-EGClD2yYOhLsUAKh-12" target="2FQ-EGClD2yYOhLsUAKh-5">
          <mxGeometry relative="1" as="geometry" />
        </mxCell>
        <mxCell id="2FQ-EGClD2yYOhLsUAKh-12" value="게시판 보기" style="rounded=1;whiteSpace=wrap;html=1;" vertex="1" parent="2FQ-EGClD2yYOhLsUAKh-2">
          <mxGeometry x="70" y="220" width="110" height="50" as="geometry" />
        </mxCell>
        <mxCell id="2FQ-EGClD2yYOhLsUAKh-17" style="edgeStyle=orthogonalEdgeStyle;rounded=1;orthogonalLoop=1;jettySize=auto;html=1;exitX=0;exitY=0.5;exitDx=0;exitDy=0;endArrow=none;endFill=0;curved=0;" edge="1" parent="2FQ-EGClD2yYOhLsUAKh-2" source="2FQ-EGClD2yYOhLsUAKh-11">
          <mxGeometry relative="1" as="geometry">
            <mxPoint x="-20" y="140" as="targetPoint" />
          </mxGeometry>
        </mxCell>
        <mxCell id="2FQ-EGClD2yYOhLsUAKh-29" style="edgeStyle=orthogonalEdgeStyle;rounded=0;orthogonalLoop=1;jettySize=auto;html=1;exitX=1;exitY=0.5;exitDx=0;exitDy=0;entryX=0.5;entryY=1;entryDx=0;entryDy=0;dashed=1;" edge="1" parent="2FQ-EGClD2yYOhLsUAKh-2" source="2FQ-EGClD2yYOhLsUAKh-11" target="2FQ-EGClD2yYOhLsUAKh-5">
          <mxGeometry relative="1" as="geometry" />
        </mxCell>
        <mxCell id="2FQ-EGClD2yYOhLsUAKh-41" style="edgeStyle=orthogonalEdgeStyle;rounded=1;orthogonalLoop=1;jettySize=auto;html=1;exitX=1;exitY=0.5;exitDx=0;exitDy=0;endArrow=none;endFill=0;curved=0;" edge="1" parent="2FQ-EGClD2yYOhLsUAKh-2" source="2FQ-EGClD2yYOhLsUAKh-11">
          <mxGeometry relative="1" as="geometry">
            <mxPoint x="830" y="60" as="targetPoint" />
            <Array as="points">
              <mxPoint x="200" y="435" />
              <mxPoint x="200" y="570" />
              <mxPoint x="750" y="570" />
              <mxPoint x="750" y="110" />
            </Array>
          </mxGeometry>
        </mxCell>
        <mxCell id="2FQ-EGClD2yYOhLsUAKh-11" value="게시글 보기" style="rounded=1;whiteSpace=wrap;html=1;" vertex="1" parent="2FQ-EGClD2yYOhLsUAKh-2">
          <mxGeometry x="70" y="410" width="110" height="50" as="geometry" />
        </mxCell>
        <mxCell id="2FQ-EGClD2yYOhLsUAKh-10" value="인증" style="rounded=1;whiteSpace=wrap;html=1;" vertex="1" parent="2FQ-EGClD2yYOhLsUAKh-2">
          <mxGeometry x="550" y="20" width="110" height="50" as="geometry" />
        </mxCell>
        <mxCell id="2FQ-EGClD2yYOhLsUAKh-22" style="edgeStyle=orthogonalEdgeStyle;rounded=0;orthogonalLoop=1;jettySize=auto;html=1;exitX=0;exitY=0.5;exitDx=0;exitDy=0;entryX=1;entryY=0.5;entryDx=0;entryDy=0;endArrow=classic;endFill=1;dashed=1;" edge="1" parent="2FQ-EGClD2yYOhLsUAKh-2" source="2FQ-EGClD2yYOhLsUAKh-9" target="2FQ-EGClD2yYOhLsUAKh-5">
          <mxGeometry relative="1" as="geometry" />
        </mxCell>
        <mxCell id="2FQ-EGClD2yYOhLsUAKh-23" value="&amp;lt;&amp;lt; extend &amp;gt;&amp;gt;" style="edgeLabel;html=1;align=center;verticalAlign=middle;resizable=0;points=[];" vertex="1" connectable="0" parent="2FQ-EGClD2yYOhLsUAKh-22">
          <mxGeometry x="-0.0974" y="-3" relative="1" as="geometry">
            <mxPoint as="offset" />
          </mxGeometry>
        </mxCell>
        <mxCell id="2FQ-EGClD2yYOhLsUAKh-9" value="로그인 실패" style="rounded=1;whiteSpace=wrap;html=1;" vertex="1" parent="2FQ-EGClD2yYOhLsUAKh-2">
          <mxGeometry x="540" y="110" width="110" height="50" as="geometry" />
        </mxCell>
        <mxCell id="2FQ-EGClD2yYOhLsUAKh-30" style="edgeStyle=orthogonalEdgeStyle;rounded=0;orthogonalLoop=1;jettySize=auto;html=1;exitX=0;exitY=0.5;exitDx=0;exitDy=0;entryX=1;entryY=0.5;entryDx=0;entryDy=0;dashed=1;" edge="1" parent="2FQ-EGClD2yYOhLsUAKh-2" source="2FQ-EGClD2yYOhLsUAKh-8" target="2FQ-EGClD2yYOhLsUAKh-12">
          <mxGeometry relative="1" as="geometry" />
        </mxCell>
        <mxCell id="2FQ-EGClD2yYOhLsUAKh-8" value="게시판 정렬" style="rounded=1;whiteSpace=wrap;html=1;" vertex="1" parent="2FQ-EGClD2yYOhLsUAKh-2">
          <mxGeometry x="230" y="200" width="110" height="50" as="geometry" />
        </mxCell>
        <mxCell id="2FQ-EGClD2yYOhLsUAKh-31" style="edgeStyle=orthogonalEdgeStyle;rounded=0;orthogonalLoop=1;jettySize=auto;html=1;exitX=0;exitY=0.5;exitDx=0;exitDy=0;entryX=1;entryY=0.5;entryDx=0;entryDy=0;dashed=1;" edge="1" parent="2FQ-EGClD2yYOhLsUAKh-2" source="2FQ-EGClD2yYOhLsUAKh-7" target="2FQ-EGClD2yYOhLsUAKh-12">
          <mxGeometry relative="1" as="geometry" />
        </mxCell>
        <mxCell id="2FQ-EGClD2yYOhLsUAKh-7" value="게시판 검색" style="rounded=1;whiteSpace=wrap;html=1;" vertex="1" parent="2FQ-EGClD2yYOhLsUAKh-2">
          <mxGeometry x="230" y="280" width="110" height="50" as="geometry" />
        </mxCell>
        <mxCell id="2FQ-EGClD2yYOhLsUAKh-33" style="edgeStyle=orthogonalEdgeStyle;rounded=0;orthogonalLoop=1;jettySize=auto;html=1;exitX=0;exitY=0.5;exitDx=0;exitDy=0;entryX=1;entryY=0.5;entryDx=0;entryDy=0;dashed=1;" edge="1" parent="2FQ-EGClD2yYOhLsUAKh-2" source="2FQ-EGClD2yYOhLsUAKh-6" target="2FQ-EGClD2yYOhLsUAKh-11">
          <mxGeometry relative="1" as="geometry" />
        </mxCell>
        <mxCell id="2FQ-EGClD2yYOhLsUAKh-6" value="게시글 쓰기, 수정, 삭제" style="rounded=1;whiteSpace=wrap;html=1;" vertex="1" parent="2FQ-EGClD2yYOhLsUAKh-2">
          <mxGeometry x="230" y="470" width="120" height="50" as="geometry" />
        </mxCell>
        <mxCell id="2FQ-EGClD2yYOhLsUAKh-32" style="edgeStyle=orthogonalEdgeStyle;rounded=0;orthogonalLoop=1;jettySize=auto;html=1;exitX=0;exitY=0.5;exitDx=0;exitDy=0;entryX=1;entryY=0.5;entryDx=0;entryDy=0;dashed=1;" edge="1" parent="2FQ-EGClD2yYOhLsUAKh-2" source="2FQ-EGClD2yYOhLsUAKh-4" target="2FQ-EGClD2yYOhLsUAKh-11">
          <mxGeometry relative="1" as="geometry" />
        </mxCell>
        <mxCell id="2FQ-EGClD2yYOhLsUAKh-4" value="댓글 보기, 쓰기, 수정, 삭제" style="rounded=1;whiteSpace=wrap;html=1;" vertex="1" parent="2FQ-EGClD2yYOhLsUAKh-2">
          <mxGeometry x="230" y="400" width="110" height="50" as="geometry" />
        </mxCell>
        <mxCell id="2FQ-EGClD2yYOhLsUAKh-14" style="edgeStyle=orthogonalEdgeStyle;rounded=1;orthogonalLoop=1;jettySize=auto;html=1;exitX=0;exitY=0.5;exitDx=0;exitDy=0;entryX=1;entryY=0.3333333333333333;entryDx=0;entryDy=0;entryPerimeter=0;endArrow=none;endFill=0;curved=0;" edge="1" parent="1" source="2FQ-EGClD2yYOhLsUAKh-13" target="2FQ-EGClD2yYOhLsUAKh-1">
          <mxGeometry relative="1" as="geometry" />
        </mxCell>
        <mxCell id="2FQ-EGClD2yYOhLsUAKh-16" style="edgeStyle=orthogonalEdgeStyle;rounded=1;orthogonalLoop=1;jettySize=auto;html=1;exitX=0;exitY=0.5;exitDx=0;exitDy=0;entryX=1;entryY=0.3333333333333333;entryDx=0;entryDy=0;entryPerimeter=0;endArrow=none;endFill=0;curved=0;" edge="1" parent="1" source="2FQ-EGClD2yYOhLsUAKh-12" target="2FQ-EGClD2yYOhLsUAKh-1">
          <mxGeometry relative="1" as="geometry" />
        </mxCell>
        <mxCell id="2FQ-EGClD2yYOhLsUAKh-18" style="edgeStyle=orthogonalEdgeStyle;rounded=1;orthogonalLoop=1;jettySize=auto;html=1;exitX=0;exitY=0.5;exitDx=0;exitDy=0;entryX=1;entryY=0.3333333333333333;entryDx=0;entryDy=0;entryPerimeter=0;endArrow=none;endFill=0;curved=0;" edge="1" parent="1" source="2FQ-EGClD2yYOhLsUAKh-5" target="2FQ-EGClD2yYOhLsUAKh-1">
          <mxGeometry relative="1" as="geometry" />
        </mxCell>
        <mxCell id="2FQ-EGClD2yYOhLsUAKh-34" value="DB&lt;br&gt;" style="html=1;dropTarget=0;whiteSpace=wrap;" vertex="1" parent="1">
          <mxGeometry x="920" y="40" width="100" height="90" as="geometry" />
        </mxCell>
        <mxCell id="2FQ-EGClD2yYOhLsUAKh-37" style="edgeStyle=orthogonalEdgeStyle;rounded=1;orthogonalLoop=1;jettySize=auto;html=1;exitX=1;exitY=0.5;exitDx=0;exitDy=0;entryX=0;entryY=0.5;entryDx=0;entryDy=0;endArrow=none;endFill=0;curved=0;" edge="1" parent="1" source="2FQ-EGClD2yYOhLsUAKh-4" target="2FQ-EGClD2yYOhLsUAKh-34">
          <mxGeometry relative="1" as="geometry">
            <Array as="points">
              <mxPoint x="760" y="445" />
              <mxPoint x="760" y="85" />
            </Array>
          </mxGeometry>
        </mxCell>
        <mxCell id="2FQ-EGClD2yYOhLsUAKh-38" style="edgeStyle=orthogonalEdgeStyle;rounded=1;orthogonalLoop=1;jettySize=auto;html=1;exitX=1;exitY=0.5;exitDx=0;exitDy=0;entryX=0;entryY=0.5;entryDx=0;entryDy=0;endArrow=none;endFill=0;curved=0;" edge="1" parent="1" source="2FQ-EGClD2yYOhLsUAKh-6" target="2FQ-EGClD2yYOhLsUAKh-34">
          <mxGeometry relative="1" as="geometry">
            <mxPoint x="830" y="190" as="targetPoint" />
            <Array as="points">
              <mxPoint x="770" y="515" />
              <mxPoint x="770" y="85" />
            </Array>
          </mxGeometry>
        </mxCell>
        <mxCell id="2FQ-EGClD2yYOhLsUAKh-39" style="edgeStyle=orthogonalEdgeStyle;rounded=1;orthogonalLoop=1;jettySize=auto;html=1;exitX=1;exitY=0.5;exitDx=0;exitDy=0;entryX=0;entryY=0.5;entryDx=0;entryDy=0;endArrow=none;endFill=0;curved=0;" edge="1" parent="1" source="2FQ-EGClD2yYOhLsUAKh-10" target="2FQ-EGClD2yYOhLsUAKh-34">
          <mxGeometry relative="1" as="geometry" />
        </mxCell>
        <mxCell id="2FQ-EGClD2yYOhLsUAKh-40" style="edgeStyle=orthogonalEdgeStyle;rounded=1;orthogonalLoop=1;jettySize=auto;html=1;exitX=1;exitY=0.5;exitDx=0;exitDy=0;entryX=0;entryY=0.5;entryDx=0;entryDy=0;endArrow=none;endFill=0;curved=0;" edge="1" parent="1" source="2FQ-EGClD2yYOhLsUAKh-12" target="2FQ-EGClD2yYOhLsUAKh-34">
          <mxGeometry relative="1" as="geometry">
            <mxPoint x="910" y="90" as="targetPoint" />
            <Array as="points">
              <mxPoint x="600" y="265" />
              <mxPoint x="600" y="110" />
              <mxPoint x="920" y="110" />
            </Array>
          </mxGeometry>
        </mxCell>
      </root>
    </mxGraphModel>
  </diagram>
</mxfile>
